<svg width="68" height="17" viewBox="0 0 68 17" fill="none" xmlns="http://www.w3.org/2000/svg">
<path d="M0.546 3.648H4.424V3.984L3.206 4.11V12.552L6.734 12.51L7.392 10.914H7.756L7.588 13H0.546V12.664L1.764 12.538V4.11L0.546 3.984V3.648ZM17.969 8.296C17.969 9.696 17.5443 10.858 16.695 11.782C15.8457 12.6967 14.707 13.154 13.279 13.154C11.851 13.154 10.7077 12.6967 9.849 11.782C8.99967 10.858 8.575 9.696 8.575 8.296C8.575 6.896 8.99967 5.73867 9.849 4.824C10.7077 3.9 11.851 3.438 13.279 3.438C14.707 3.438 15.8457 3.9 16.695 4.824C17.5443 5.73867 17.969 6.896 17.969 8.296ZM13.293 12.72C15.2717 12.72 16.261 11.2453 16.261 8.296C16.261 6.87733 16.0323 5.78533 15.575 5.02C15.127 4.25467 14.3617 3.872 13.279 3.872C12.1963 3.872 11.4263 4.25467 10.969 5.02C10.5117 5.776 10.283 6.868 10.283 8.296C10.283 11.2453 11.2863 12.72 13.293 12.72ZM24.5698 4.11C24.0658 3.93267 23.5478 3.844 23.0158 3.844C22.4838 3.844 22.0171 3.998 21.6158 4.306C21.2144 4.60467 21.0138 5.05267 21.0138 5.65C21.0138 6.22867 21.2611 6.672 21.7558 6.98C22.0264 7.148 22.2458 7.26933 22.4138 7.344C22.5911 7.41867 22.8431 7.51667 23.1698 7.638C23.5058 7.75933 23.7344 7.848 23.8558 7.904C23.9771 7.95067 24.1544 8.03 24.3878 8.142C24.6304 8.24467 24.8078 8.338 24.9198 8.422C25.0411 8.506 25.1858 8.62267 25.3538 8.772C25.5218 8.92133 25.6478 9.07067 25.7318 9.22C25.9371 9.60267 26.0398 10.018 26.0398 10.466C26.0398 11.2593 25.7178 11.908 25.0738 12.412C24.4298 12.916 23.5944 13.168 22.5678 13.168C21.7838 13.168 21.0511 13.0373 20.3698 12.776C20.0338 12.6547 19.7584 12.4867 19.5438 12.272C19.3291 12.0573 19.2218 11.81 19.2218 11.53C19.2218 11.0727 19.5531 10.76 20.2158 10.592C20.3184 11.152 20.5144 11.6047 20.8038 11.95C21.0931 12.2953 21.3918 12.524 21.6998 12.636C22.0171 12.748 22.3998 12.804 22.8478 12.804C23.3051 12.804 23.7344 12.6593 24.1358 12.37C24.5371 12.0713 24.7378 11.586 24.7378 10.914C24.7378 10.4007 24.5044 9.98067 24.0378 9.654C23.6644 9.402 23.2024 9.164 22.6518 8.94C22.1104 8.716 21.7464 8.56667 21.5598 8.492C21.3731 8.408 21.1304 8.282 20.8318 8.114C20.5424 7.93667 20.3278 7.764 20.1878 7.596C19.8238 7.15733 19.6418 6.65333 19.6418 6.084C19.6418 5.20667 19.9544 4.544 20.5798 4.096C21.2051 3.648 22.0684 3.424 23.1698 3.424C23.8324 3.424 24.6024 3.49867 25.4798 3.648V5.706H25.0458L24.5698 4.11Z" fill="black"/>
<path d="M32.2 2.5L27.7 8.5L32.2 14.5L36.7 8.5L32.2 2.5Z" fill="url(#paint0_linear_105_18)"/>
<path d="M45.086 3.648H47.914V3.984L46.934 4.306V13H46.164L39.752 5.314V12.314L40.914 12.664V13H38.03V12.664L39.15 12.314V4.11L37.932 3.97V3.648H40.228L46.164 10.83V4.306L45.086 3.984V3.648ZM57.6719 12.748C56.7759 12.972 55.7492 13.084 54.5919 13.084C52.6506 13.084 51.2226 12.6173 50.3079 11.684C49.9719 11.348 49.7012 10.914 49.4959 10.382C49.2999 9.84067 49.2019 9.18267 49.2019 8.408C49.2019 7.63333 49.3512 6.91933 49.6499 6.266C49.9579 5.60333 50.3732 5.08067 50.8959 4.698C51.9319 3.93267 53.1639 3.55 54.5919 3.55L57.4759 3.676L57.5599 6.224H57.1119L56.6359 4.39C56.1319 4.17533 55.5346 4.068 54.8439 4.068C53.7146 4.068 52.7766 4.44133 52.0299 5.188C51.2926 5.92533 50.9239 7.00333 50.9239 8.422C50.9239 9.84067 51.2832 10.8907 52.0019 11.572C52.7299 12.244 53.6586 12.58 54.7879 12.58C55.3386 12.58 55.8426 12.524 56.2999 12.412V9.43L55.1379 9.304V8.968H58.5119V9.304L57.6719 9.43V12.748ZM59.4929 13V12.664L60.7109 12.538V4.11L59.4929 3.956V3.648H66.1989L66.2129 5.636H65.8489L65.3729 4.152L62.1529 4.11V7.876H64.9809L65.4149 6.84H65.6949V9.444H65.4009L64.9809 8.38H62.1529V12.552L65.7929 12.51L66.4509 10.914H66.8149L66.6469 13H59.4929Z" fill="black"/>
<defs>
<linearGradient id="paint0_linear_105_18" x1="32.2" y1="2.5" x2="32.2" y2="14.5" gradientUnits="userSpaceOnUse">
<stop/>
<stop offset="1" stop-color="#666666"/>
</linearGradient>
</defs>
</svg>
