<?xml version="1.0" encoding="UTF-8" standalone="no"?>
<svg
   width="857.55212"
   height="149.57401"
   version="1.1"
   id="svg64"
   xml:space="preserve"
   sodipodi:docname="logo.svg"
   inkscape:version="1.4 (86a8ad7, 2024-10-11)"
   inkscape:export-filename="logo.png"
   inkscape:export-xdpi="100"
   inkscape:export-ydpi="100"
   xmlns:inkscape="http://www.inkscape.org/namespaces/inkscape"
   xmlns:sodipodi="http://sodipodi.sourceforge.net/DTD/sodipodi-0.dtd"
   xmlns="http://www.w3.org/2000/svg"
   xmlns:svg="http://www.w3.org/2000/svg"><sodipodi:namedview
     id="namedview1"
     pagecolor="#ffffff"
     bordercolor="#000000"
     borderopacity="0.25"
     inkscape:showpageshadow="2"
     inkscape:pageopacity="0.0"
     inkscape:pagecheckerboard="0"
     inkscape:deskcolor="#d1d1d1"
     inkscape:zoom="1.0579107"
     inkscape:cx="431.03827"
     inkscape:cy="13.706261"
     inkscape:window-width="1920"
     inkscape:window-height="1094"
     inkscape:window-x="-11"
     inkscape:window-y="-11"
     inkscape:window-maximized="1"
     inkscape:current-layer="g64" /><defs
     id="defs64" /><path
     fill="#222457"
     d="m 50.641054,0 c 6.764,5.687 12.419,13.703 17.772,20.698 15.458,20.198 34.431996,44.46 36.919996,70.551 1.36,14.268 -2.738,28.44 -12.027996,39.422 -10.287,12.159 -22.742,17.642 -38.418,18.897 q -1.731,0.018 -3.462,-0.018 c -14.465,-0.326 -27.973,-6.946 -37.839,-17.406 -9.2626,-9.82 -13.99980004,-24.017 -13.55770004,-37.418 0.5345,-16.199 9.27620004,-33.062 21.78370004,-43.307 5.331,-4.367 11.394,-7.662 16.453,-12.408 11.844,-11.113 11.815,-23.817 12.376,-39.011 z"
     id="path50"
     style="fill:#353031;fill-opacity:1" /><path
     fill="#fefefe"
     d="m 47.131194,44.360132 c 1.586639,1.248509 2.410232,3.587244 2.88133,5.340408 2.585234,9.620396 -1.4191,18.8639 -8.690435,26.217251 -3.722339,3.764689 -8.001205,7.243334 -11.014409,11.476479 -3.259535,4.578813 -5.331372,10.978217 -3.767127,16.29377 0.197397,0.67004 0.357471,1.1527 0.302731,1.85396 -1.109735,-0.15544 -1.756666,-0.93478 -2.575282,-1.57572 q -0.801199,-0.95253 -1.560928,-1.9299 C 19.491497,97.873504 17.844312,92.883734 17.65438,87.918801 16.753654,64.403692 42.907899,62.15652 47.131194,44.360132 Z"
     id="path52"
     style="stroke-width:0.767263" /><g
     id="g65"
     transform="translate(0,3.5407966)"><g
       id="g64"
       transform="matrix(0.9754202,0,0,0.90815594,-83.41523,-390.3689)"><path
         id="path27-5"
         d="m 680.6073,452.95943 c -0.90667,-0.0187 -1.81208,-0.0149 -2.71875,0.0117 -0.90667,0.026 -1.8128,0.0758 -2.7168,0.14648 -0.904,0.0707 -1.80508,0.16268 -2.70508,0.27735 -0.89733,0.11466 -1.79292,0.25149 -2.68359,0.41015 -0.89067,0.15867 -1.7762,0.33773 -2.6582,0.53907 -0.882,0.202 -1.75824,0.42654 -2.62891,0.67187 -0.87133,0.24467 -1.73575,0.5115 -2.59375,0.79883 -0.85733,0.28733 -1.70745,0.59449 -2.55078,0.92383 -0.84267,0.32866 -1.67662,0.67882 -2.50195,1.04882 -0.826,0.37001 -1.64322,0.75993 -2.44922,1.16993 -0.80667,0.41 -1.60139,0.83973 -2.38672,1.28906 -0.786,0.44867 -1.56027,0.91696 -2.32227,1.4043 -0.76266,0.48666 -1.51395,0.99033 -2.25195,1.51367 -0.73733,0.524 -1.46054,1.06566 -2.17187,1.625 -0.71134,0.55933 -1.40913,1.13518 -2.0918,1.72851 -0.68333,0.59334 -1.35124,1.20408 -2.00391,1.83008 -0.65333,0.62667 -1.29077,1.26845 -1.91211,1.92578 -0.62133,0.65734 -1.22578,1.32896 -1.81445,2.01563 -0.58867,0.68733 -1.16084,1.38818 -1.71484,2.10351 -0.55467,0.71467 -1.08943,1.44355 -1.60743,2.18555 -0.51866,0.74133 -1.01866,1.49572 -1.5,2.26172 -0.482,0.766 -0.94533,1.54208 -1.38867,2.33008 -0.44333,0.78866 -0.86748,1.5891 -1.27148,2.39843 -0.40467,0.81 -0.78835,1.62904 -1.15235,2.45704 -0.364,0.828 -0.70858,1.66443 -1.03125,2.50976 -0.32333,0.84534 -0.62491,1.69731 -0.90625,2.55664 -0.28133,0.86 -0.54063,1.72695 -0.77929,2.59961 -0.23867,0.87267 -0.45635,1.74948 -0.65235,2.63281 -0.19533,0.88334 -0.36881,1.77207 -0.52148,2.66407 -0.152,0.892 -0.28263,1.78559 -0.39063,2.68359 -0.10866,0.898 -0.19576,1.79851 -0.25976,2.70117 -0.064,0.902 -0.105,1.80627 -0.125,2.71094 -0.02,0.90467 -0.0188,1.80822 0.006,2.71289 0.024,0.904 0.0713,1.80699 0.14062,2.70898 0.0687,0.90201 0.15882,1.80318 0.27149,2.70118 0.11266,0.89733 0.24763,1.7903 0.40429,2.68164 0.15734,0.89133 0.33711,1.77815 0.53711,2.66015 0.2,0.882 0.42073,1.75886 0.66407,2.63086 0.24333,0.87134 0.50763,1.73771 0.79296,2.59571 0.286,0.85866 0.59259,1.7094 0.91993,2.55273 0.32733,0.84333 0.67497,1.67724 1.04297,2.50391 0.36866,0.82666 0.75801,1.64384 1.16601,2.45117 0.40867,0.80733 0.83587,1.60462 1.2832,2.39062 0.44734,0.78667 0.91439,1.56089 1.40039,2.32422 0.48534,0.76334 0.98777,1.51524 1.50977,2.25391 0.522,0.73867 1.06309,1.46311 1.62109,2.17578 0.558,0.712 1.13261,1.4117 1.72461,2.0957 0.592,0.684 1.20084,1.35315 1.82618,2.00782 0.62466,0.654 1.26587,1.29139 1.92187,1.91406 0.656,0.62333 1.32572,1.23031 2.01172,1.82031 0.686,0.59 1.38561,1.16342 2.09961,1.71875 0.714,0.55533 1.44293,1.09133 2.18359,1.61133 0.74067,0.52 1.49315,1.02252 2.25781,1.50586 0.76534,0.48266 1.5408,0.94724 2.32813,1.39258 0.788,0.44466 1.58586,0.86939 2.39453,1.27539 0.80867,0.406 1.62775,0.79091 2.45508,1.15625 0.82733,0.366 1.66314,0.71244 2.50781,1.03711 0.84467,0.32466 1.69731,0.62877 2.55664,0.91211 0.85934,0.28266 1.72371,0.54449 2.59571,0.78515 0.872,0.24067 1.74947,0.45892 2.63281,0.65625 0.88266,0.19734 1.77077,0.37335 2.66211,0.52735 0.892,0.154 1.78754,0.28648 2.68554,0.39648 0.898,0.11 1.79722,0.19767 2.69922,0.26367 0.90267,0.066 1.80499,0.10953 2.70899,0.13086 0.90466,0.022 1.81017,0.0207 2.71484,-0.002 0.904,-0.0227 1.80827,-0.0674 2.71094,-0.13477 0.902,-0.0667 1.80122,-0.15429 2.69922,-0.26562 0.9,-0.11134 1.79612,-0.24506 2.68945,-0.40039 0.894,-0.156 1.7833,-0.33387 2.66797,-0.53321 0.88467,-0.19866 1.76467,-0.41944 2.63867,-0.66211 0.874,-0.24266 1.74218,-0.50634 2.60352,-0.79101 0.86066,-0.28533 1.71259,-0.59259 2.55859,-0.91992 0.846,-0.32667 1.68434,-0.67431 2.51367,-1.04297 0.82867,-0.368 1.64703,-0.7554 2.45703,-1.16406 0.80934,-0.408 1.60911,-0.83716 2.39844,-1.28516 0.78867,-0.448 1.56603,-0.91439 2.33203,-1.40039 0.76534,-0.486 1.51843,-0.98905 2.25977,-1.51172 0.74066,-0.52333 1.46892,-1.06438 2.18359,-1.62305 0.71467,-0.55866 1.41556,-1.13518 2.10156,-1.72851 0.686,-0.59334 1.35572,-1.20408 2.01172,-1.83008 0.656,-0.62667 1.29721,-1.26845 1.92188,-1.92578 0.62466,-0.658 1.23288,-1.33025 1.82422,-2.01758 0.59133,-0.688 1.16532,-1.39014 1.72265,-2.10547 0.55667,-0.716 1.09586,-1.44483 1.61719,-2.1875 0.52133,-0.742 1.02381,-1.49634 1.50781,-2.26367 0.484,-0.76667 0.94853,-1.54594 1.39453,-2.33594 0.44534,-0.79 0.87263,-1.58972 1.2793,-2.40039 0.40667,-0.81067 0.7922,-1.63094 1.1582,-2.46094 0.366,-0.83 0.71049,-1.66895 1.03516,-2.51562 0.32533,-0.84667 0.62944,-1.7005 0.91211,-2.5625 0.28267,-0.862 0.54449,-1.72952 0.78516,-2.60352 0.24,-0.87466 0.45891,-1.75529 0.65625,-2.64062 0.19666,-0.886 0.37205,-1.77464 0.52539,-2.66797 0.15333,-0.894 0.28519,-1.79269 0.39453,-2.69336 0.10866,-0.90067 0.1951,-1.80236 0.25976,-2.70703 0.0653,-0.90467 0.10696,-1.81013 0.12696,-2.7168 0.02,-0.90666 0.0181,-1.81403 -0.006,-2.7207 -0.0247,-0.90667 -0.07,-1.81213 -0.13867,-2.7168 -0.0687,-0.904 -0.16011,-1.80703 -0.27344,-2.70703 -0.11334,-0.9 -0.24892,-1.79612 -0.40625,-2.68945 -0.15734,-0.89334 -0.33644,-1.78202 -0.53711,-2.66602 -0.20067,-0.88466 -0.4233,-1.76338 -0.66797,-2.63672 -0.244,-0.87333 -0.51021,-1.74089 -0.79688,-2.60156 -0.28666,-0.86067 -0.5932,-1.71326 -0.92187,-2.55859 -0.32867,-0.84534 -0.67883,-1.68177 -1.04883,-2.50977 -0.37,-0.828 -0.75992,-1.64574 -1.16992,-2.45508 -0.41,-0.80866 -0.83973,-1.60848 -1.28906,-2.39648 -0.44934,-0.788 -0.91825,-1.56346 -1.40625,-2.32813 -0.48734,-0.76466 -0.99291,-1.51781 -1.51758,-2.25781 -0.524,-0.74 -1.06629,-1.46635 -1.62695,-2.17969 -0.56,-0.71333 -1.13776,-1.41232 -1.73243,-2.09765 -0.59466,-0.68467 -1.20469,-1.3551 -1.83203,-2.00977 -0.62733,-0.65533 -1.27035,-1.29463 -1.92968,-1.91797 -0.65867,-0.62266 -1.33282,-1.22964 -2.02149,-1.82031 -0.68867,-0.59 -1.39204,-1.16146 -2.10937,-1.7168 -0.71667,-0.556 -1.44612,-1.09394 -2.18946,-1.61328 -0.74333,-0.52 -1.49958,-1.02124 -2.26758,-1.5039 -0.768,-0.482 -1.54722,-0.94596 -2.33789,-1.39063 -0.79066,-0.444 -1.59229,-0.86877 -2.40429,-1.27344 -0.81134,-0.40533 -1.63223,-0.78834 -2.46289,-1.15234 -0.83067,-0.36467 -1.6683,-0.70987 -2.51563,-1.0332 -0.84733,-0.32334 -1.70374,-0.62492 -2.5664,-0.90625 -0.862,-0.28067 -1.73014,-0.54063 -2.60547,-0.7793 -0.87467,-0.23867 -1.75463,-0.45506 -2.64063,-0.65039 -0.88533,-0.19533 -1.77525,-0.37015 -2.66992,-0.52149 -0.894,-0.15133 -1.79269,-0.27938 -2.69336,-0.38671 -0.90067,-0.10734 -1.80236,-0.19253 -2.70703,-0.25586 -0.90467,-0.0627 -1.81142,-0.10438 -2.71875,-0.12305 z m -0.44531,20.29883 c 0.574,0.0107 1.14803,0.0368 1.7207,0.0762 0.57267,0.0387 1.14418,0.0909 1.71484,0.1582 0.57,0.0673 1.13713,0.14881 1.70313,0.24414 0.56667,0.0953 1.13074,0.20546 1.6914,0.32813 0.56067,0.12267 1.11788,0.25754 1.67188,0.4082 0.55467,0.15067 1.10439,0.31486 1.65039,0.49219 0.546,0.178 1.08833,0.37022 1.625,0.57422 0.536,0.204 1.0658,0.42168 1.5918,0.65234 0.526,0.23067 1.04654,0.47252 1.56054,0.72852 0.514,0.256 1.02082,0.5253 1.52149,0.80664 0.50067,0.28066 0.99447,0.57486 1.48047,0.88086 0.486,0.30533 0.96488,0.62055 1.43554,0.94922 0.47067,0.32933 0.93272,0.67015 1.38672,1.02148 0.45334,0.352 0.89799,0.71584 1.33399,1.08984 0.436,0.37334 0.86196,0.75701 1.27929,1.15235 0.41667,0.39466 0.82404,0.80018 1.22071,1.21484 0.39733,0.41467 0.78415,0.83749 1.16015,1.27149 0.376,0.434 0.74104,0.87807 1.09571,1.33007 0.354,0.45134 0.69601,0.91153 1.02734,1.38086 0.33133,0.46867 0.65227,0.94502 0.96094,1.42969 0.308,0.484 0.60338,0.97528 0.88672,1.47461 0.284,0.49933 0.55578,1.00687 0.81445,1.51953 0.25933,0.512 0.50561,1.03002 0.73828,1.55469 0.23333,0.52467 0.45282,1.05384 0.66016,1.58984 0.20733,0.53534 0.40136,1.07643 0.58203,1.6211 0.18,0.54533 0.34795,1.0951 0.50195,1.64843 0.15333,0.55334 0.29197,1.10993 0.41797,1.66993 0.126,0.56 0.23794,1.1215 0.33594,1.6875 0.098,0.566 0.18324,1.13379 0.2539,1.70312 0.07,0.57 0.12597,1.14218 0.16797,1.71484 0.042,0.57267 0.07,1.14475 0.084,1.71875 0.014,0.57401 0.0127,1.14866 -0.002,1.72266 -0.0147,0.574 -0.0433,1.14804 -0.0859,1.7207 -0.0427,0.57267 -0.0993,1.1429 -0.16993,1.71289 -0.0713,0.56934 -0.15523,1.13713 -0.2539,1.70313 -0.0987,0.56533 -0.21123,1.12945 -0.33789,1.68945 -0.12667,0.56 -0.26788,1.11659 -0.42188,1.66992 -0.154,0.55334 -0.32062,1.10182 -0.50195,1.64649 -0.18133,0.54467 -0.37598,1.08381 -0.58398,1.61914 -0.20734,0.53533 -0.42811,1.06518 -0.66211,1.58984 -0.234,0.524 -0.48091,1.04269 -0.74024,1.55469 -0.25933,0.51267 -0.53174,1.01891 -0.8164,1.51758 -0.284,0.49867 -0.58001,0.98994 -0.88868,1.47461 -0.30866,0.484 -0.62893,0.95973 -0.96093,1.42773 -0.332,0.46867 -0.67592,0.92953 -1.03125,1.38086 -0.35467,0.45134 -0.72099,0.89413 -1.09766,1.32813 -0.376,0.43333 -0.76216,0.85553 -1.16016,1.26953 -0.39733,0.41467 -0.80532,0.81889 -1.22265,1.21289 -0.41734,0.39467 -0.84459,0.77901 -1.28125,1.15234 -0.436,0.37267 -0.87999,0.73461 -1.33399,1.08594 -0.45466,0.35133 -0.918,0.69087 -1.38867,1.01953 -0.47067,0.32867 -0.94888,0.64651 -1.43555,0.95117 -0.48666,0.30467 -0.98108,0.59629 -1.48242,0.87696 -0.50066,0.28066 -1.00748,0.54935 -1.52148,0.80468 -0.51467,0.25534 -1.03455,0.49852 -1.56055,0.72852 -0.526,0.23 -1.05837,0.44706 -1.5957,0.65039 -0.53667,0.204 -1.079,0.39365 -1.625,0.57031 -0.54667,0.17734 -1.09639,0.34024 -1.65039,0.49024 -0.554,0.14933 -1.1125,0.28553 -1.67383,0.4082 -0.56133,0.122 -1.12345,0.23151 -1.68945,0.32617 -0.562,0.094 -1.12608,0.17228 -1.69141,0.23828 -0.56533,0.066 -1.13122,0.11954 -1.69922,0.15821 -0.568,0.0387 -1.1377,0.0635 -1.70703,0.0742 -0.56933,0.0107 -1.1377,0.008 -1.70703,-0.01 -0.56933,-0.0173 -1.13775,-0.0491 -1.70508,-0.0937 -0.568,-0.0453 -1.13455,-0.10507 -1.69922,-0.17773 -0.56467,-0.072 -1.12878,-0.15715 -1.68945,-0.25782 -0.56067,-0.1 -1.11721,-0.21446 -1.67188,-0.34179 -0.55533,-0.12734 -1.10825,-0.26721 -1.65625,-0.42188 -0.548,-0.154 -1.09086,-0.32257 -1.63086,-0.50391 -0.54,-0.18066 -1.07546,-0.37469 -1.60546,-0.58203 -0.53067,-0.20733 -1.05489,-0.42749 -1.57422,-0.66015 -0.52,-0.23267 -1.03369,-0.47833 -1.54102,-0.73633 -0.508,-0.258 -1.00991,-0.52659 -1.50391,-0.80859 -0.49466,-0.28267 -0.98093,-0.57682 -1.46093,-0.88282 -0.48,-0.30666 -0.9533,-0.62574 -1.41797,-0.95508 -0.46467,-0.32933 -0.92114,-0.67015 -1.36914,-1.02148 -0.44734,-0.352 -0.88574,-0.71327 -1.31641,-1.08594 -0.43,-0.37333 -0.85038,-0.75834 -1.26172,-1.15234 -0.41133,-0.39333 -0.81308,-0.79565 -1.20508,-1.20899 -0.39133,-0.41333 -0.77319,-0.83557 -1.14453,-1.26757 -0.37066,-0.432 -0.73074,-0.87294 -1.08007,-1.32227 -0.34934,-0.44933 -0.6883,-0.90833 -1.01563,-1.375 -0.32733,-0.466 -0.64131,-0.93859 -0.94531,-1.41992 -0.30334,-0.48133 -0.595,-0.9708 -0.875,-1.4668 -0.28,-0.496 -0.54869,-0.99719 -0.80469,-1.50586 -0.25533,-0.50866 -0.49852,-1.02359 -0.72852,-1.54492 -0.23066,-0.52067 -0.44767,-1.04679 -0.65234,-1.57812 -0.204,-0.53134 -0.39555,-1.06871 -0.57422,-1.60938 -0.178,-0.54067 -0.34214,-1.08414 -0.49414,-1.63281 -0.152,-0.54933 -0.29135,-1.10287 -0.41601,-1.6582 -0.12467,-0.556 -0.2347,-1.11317 -0.33204,-1.67383 -0.0973,-0.56134 -0.18195,-1.12479 -0.25195,-1.68946 -0.07,-0.56533 -0.12597,-1.13121 -0.16797,-1.69921 -0.0427,-0.56734 -0.07,-1.13575 -0.084,-1.70508 -0.0147,-0.56934 -0.0153,-1.13965 -0.002,-1.70899 0.014,-0.56933 0.0394,-1.13707 0.0801,-1.70508 0.0413,-0.56799 0.0967,-1.13583 0.16602,-1.70117 0.0687,-0.56466 0.15138,-1.12616 0.24805,-1.6875 0.096,-0.56133 0.20607,-1.12173 0.33007,-1.67773 0.124,-0.556 0.26145,-1.10758 0.41211,-1.65625 0.15067,-0.54933 0.31486,-1.0941 0.49219,-1.63477 0.17733,-0.54133 0.36827,-1.07737 0.57227,-1.60937 0.204,-0.53134 0.42105,-1.05875 0.65039,-1.58008 0.22933,-0.52133 0.47189,-1.03559 0.72656,-1.54492 0.254,-0.50934 0.51949,-1.01181 0.79883,-1.50781 0.27933,-0.49667 0.57166,-0.98675 0.875,-1.46875 0.30266,-0.482 0.61669,-0.95717 0.94336,-1.42383 0.326,-0.46667 0.66305,-0.925 1.01172,-1.375 0.34866,-0.45 0.70941,-0.89155 1.08007,-1.32422 0.37,-0.43267 0.7493,-0.85553 1.14063,-1.26953 0.39067,-0.414 0.79246,-0.81823 1.20312,-1.21289 0.41067,-0.394 0.82977,-0.77835 1.25977,-1.15235 0.42933,-0.374 0.86907,-0.73589 1.31641,-1.08789 0.44733,-0.35266 0.90318,-0.69539 1.36718,-1.02539 0.464,-0.33 0.93473,-0.64774 1.41407,-0.95508 0.47933,-0.30666 0.96693,-0.60143 1.46093,-0.88476 0.494,-0.28334 0.99462,-0.55384 1.50196,-0.8125 0.50733,-0.25934 1.01973,-0.5069 1.53906,-0.74024 0.51933,-0.234 1.04422,-0.45411 1.57422,-0.66211 0.53,-0.208 1.06418,-0.40393 1.60351,-0.58593 0.54,-0.18134 1.08353,-0.34858 1.63086,-0.50391 0.548,-0.15533 1.09963,-0.29711 1.6543,-0.42578 0.55467,-0.128 1.11316,-0.24437 1.67383,-0.3457 0.56533,-0.102 1.13184,-0.18968 1.70117,-0.26368 0.56933,-0.074 1.14089,-0.1324 1.71289,-0.17773 0.57267,-0.046 1.14475,-0.0797 1.71875,-0.0977 0.574,-0.0173 1.14866,-0.0204 1.72266,-0.01 z"
         style="fill:#353031;fill-opacity:1" /><path
         id="path29-6"
         d="M 762.40699 454.77414 C 756.03024 454.81327 749.60728 455.18268 743.84728 455.23868 C 742.98228 456.25268 743.14641 456.45949 743.09641 457.74849 C 742.38841 476.20349 743.29665 494.93735 743.30865 513.42235 C 743.31765 526.21235 742.29778 543.02896 743.41478 555.34496 C 743.57178 557.08096 743.58261 558.68507 744.98261 559.87207 C 748.62961 562.96307 759.27702 561.78681 764.14102 561.80981 C 764.20402 549.26881 763.81846 536.5177 764.51546 524.0057 C 770.35446 529.9357 790.06858 560.04072 793.68158 561.35172 C 794.44158 561.62772 796.22455 561.48836 797.07555 561.48936 C 797.59221 561.48803 798.10869 561.48067 798.62536 561.47001 L 817.73772 561.44635 C 812.85305 554.93302 808.01942 548.38172 803.23675 541.79372 C 798.26375 534.85272 793.50774 527.73014 787.83274 521.32814 C 796.75574 515.86414 803.75326 508.60159 806.23826 498.15059 C 808.35626 489.24059 807.15265 479.05901 802.29565 471.21801 C 797.40165 463.31701 789.67738 458.31705 780.69038 456.28605 C 775.11438 455.02555 768.78374 454.73502 762.40699 454.77414 z M 764.27518 473.81169 C 770.96218 473.86369 777.41353 474.44826 782.52653 479.33026 C 782.88386 479.66826 783.22372 480.02283 783.54572 480.39483 C 783.86772 480.76683 784.17145 481.15351 784.45478 481.55618 C 784.73812 481.95884 785.00037 482.37489 785.2417 482.80355 C 785.48304 483.23222 785.70114 483.67339 785.89847 484.12405 C 786.09581 484.57472 786.26975 485.03395 786.42108 485.50262 C 786.57242 485.97062 786.7002 486.44502 786.80353 486.92635 C 786.90753 487.40702 786.98848 487.89086 787.04381 488.38019 C 787.09848 488.86886 787.12792 489.35923 787.13392 489.85123 C 787.22792 494.77023 785.01261 499.17997 781.73961 502.70997 C 776.55061 506.68597 770.49413 507.20376 764.23313 507.50376 C 763.68013 496.37376 764.02118 484.95369 764.27518 473.81169 z "
         style="fill:#353031;fill-opacity:1" /><path
         id="path33-2"
         d="m 259.69519,454.3774 c -6.14212,0.003 -12.23531,0.32195 -17.875,0.35351 -0.236,0.256 -0.55708,0.45258 -0.70508,0.76758 -0.687,1.461 -0.0619,95.43797 -0.0879,106.29297 6.378,0.07 12.76167,0.20595 19.13867,0.002 0.218,-12.24533 0.3051,-24.49161 0.25977,-36.73828 l 8.74609,0.0352 c 11.04,-0.161 20.37069,-2.69174 28.30469,-10.80274 6.388,-6.53199 9.18078,-14.90598 9.05078,-23.95898 -0.135,-9.336 -3.07419,-18.39981 -9.86719,-25.00781 -9.69925,-9.43319 -23.45217,-10.95006 -36.96484,-10.94336 z m 2.25195,18.76953 c 6.40578,-0.0285 12.95703,0.93289 18.11328,5.06445 3.438,2.756 5.73643,6.74121 6.10743,11.15821 0.439,5.217 -1.87582,9.87759 -5.25782,13.68359 -5.849,5.119 -12.98306,4.88011 -20.28906,5.03711 0.084,-11.642 0.10016,-23.28378 0.0488,-34.92578 0.42531,-0.0101 0.85029,-0.0157 1.27734,-0.0176 z"
         style="fill:#e59629;fill-opacity:1" /><path
         fill="#e59629"
         d="m 536.01,455.078 c 6.631,-0.158 13.285,-0.042 19.919,-0.026 l 0.018,20.773 0.062,34.364 c 0.008,6.91 0.362,14.049 -0.356,20.919 -0.998,9.557 -5.241,18.39 -12.866,24.414 -9.352,7.387 -21.822,8.653 -33.307,7.214 -9.378,-1.176 -17.94,-5.398 -23.783,-12.965 -3.607,-4.672 -5.866,-10.325 -6.907,-16.107 -1.156,-6.42 -0.81,-13.26 -0.838,-19.767 l -0.089,-26.744 c -0.027,-9.601 -1.007,-22.72 0.214,-31.926 q 9.808,-0.122 19.615,0.065 c 0.764,16.935 0.167,34.132 0.14,51.095 -0.011,6.843 -0.675,14.442 0.339,21.191 0.478,3.179 1.222,5.977 3.301,8.498 3.395,4.119 8.814,6.174 14.026,6.535 5.498,0.381 11.711,-1.025 15.833,-4.866 2.436,-2.27 3.625,-4.944 4.203,-8.18 1.387,-7.755 0.5,-16.578 0.473,-24.485 q -0.2,-25.001 0.003,-50.002 z"
         id="path35-9" /><path
         fill="#e59629"
         d="m 312.627,455.097 c 6.843,0.03 13.666,0.064 20.501,0.434 q 0.148,22.917 0.048,45.835 c -0.046,9.192 -1.005,19.288 0.389,28.316 0.432,2.798 1.249,5.053 3.154,7.192 3.743,4.202 9.765,5.667 15.193,5.809 5.522,0.144 11.412,-1.287 15.42,-5.3 2.411,-2.414 3.373,-5.136 3.855,-8.458 1.157,-7.975 0.333,-16.962 0.314,-25.06 l 0.006,-48.398 c 6.607,-0.12 13.23,-0.01 19.839,0.019 0.188,6.907 0.055,13.853 0.071,20.764 l 0.035,32.244 c 0.004,9.044 0.763,19.176 -1.423,28.001 q -0.259,1.072 -0.588,2.125 -0.328,1.053 -0.725,2.083 -0.396,1.029 -0.859,2.031 -0.462,1.001 -0.99,1.97 -0.527,0.969 -1.116,1.902 -0.589,0.932 -1.238,1.825 -0.648,0.892 -1.354,1.74 -0.706,0.848 -1.465,1.648 c -7.35,7.693 -17.285,10.943 -27.745,11.11 -11.233,0.179 -22.116,-2.479 -30.323,-10.577 q -0.84,-0.843 -1.619,-1.742 -0.78,-0.899 -1.497,-1.849 -0.717,-0.95 -1.367,-1.946 -0.65,-0.997 -1.23,-2.036 -0.581,-1.039 -1.089,-2.115 -0.508,-1.076 -0.941,-2.184 -0.434,-1.108 -0.79,-2.244 -0.357,-1.135 -0.635,-2.292 c -2.36,-10.003 -1.334,-21.655 -1.421,-31.929 z"
         id="path36-5" /><path
         fill="#353031"
         d="m 863.855,453.211 c 9.438,-0.62 18.693,0.652 27.114,5.037 l -0.185,21.135 c -8.259,-3.972 -16.702,-6.416 -25.954,-5.879 -8.955,0.52 -17.512,4.134 -23.515,10.898 -6.645,7.488 -9.888,17.911 -9.173,27.849 0.625,8.691 4.37,17.232 11.066,22.944 9.514,8.116 21.105,7.958 32.893,6.981 l -0.096,-27.412 20.352,0.049 -0.088,8.27 q -0.207,16.968 -0.197,33.937 c -6.849,2.882 -13.673,5.001 -21.089,5.798 -14.829,1.595 -32.288,-1.227 -44.088,-10.955 -11.077,-9.133 -17.837,-23.061 -19.042,-37.252 -1.297,-15.261 3.065,-31.205 13.075,-42.954 9.941,-11.668 23.879,-17.33 38.927,-18.446 z"
         id="path37-4" /><path
         fill="#353031"
         d="m 906.583,455.238 58.096,-0.253 c -3.107,6.582 -6.951,13.242 -10.677,19.494 q -13.999,-0.196 -28,-0.108 l -0.081,25.97 c 10.457,0.357 21.018,0.127 31.489,0.192 q -4.649,9.397 -9.04,18.917 -11.18,-0.106 -22.36,-0.025 l -0.038,10.2 -10e-4,12.496 c 7.064,0.149 30.397,-1.265 35.406,1.281 1.303,5.139 0.232,12.704 0.189,18.169 q -28.007,0.099 -56.013,-0.113 l 0.01,-70.454 c 0.006,-11.093 -0.897,-24.495 0.327,-35.221 l 0.584,0.082 -0.345,-0.414 z"
         id="path38-3" /><path
         fill="#353031"
         d="m 568.38,455.519 q 28.844,-0.185 57.688,-0.048 l -9.601,19.415 c -9.169,0.241 -18.396,0.01 -27.571,-0.007 l 0.015,25.19 27.99,0.205 c -1.054,3.249 -5.142,16.077 -7.4,17.79 -6.808,0.316 -13.673,0.199 -20.487,0.195 l -0.115,43.434 -0.711,0.072 c -5.2,0.485 -14.932,1.178 -19.021,-2.236 -0.899,-1.564 -1,-3.39 -1.096,-5.159 -0.679,-12.418 -0.099,-25.188 -0.088,-37.65 q -0.217,-30.603 0.397,-61.201 z"
         id="path39-1" /><path
         fill="#353031"
         d="m 415.90438,562.34227 c 19.22933,0.12333 38.45867,0.23917 57.688,0.14784 l -9.601,-19.51484 c -9.169,-0.241 -18.396,-0.01 -27.571,0.007 l 0.015,-25.19 c 0.13466,-20.53889 0.0424,-41.44792 -0.012,-61.98915 0,0 -0.33995,-0.26752 -20.828,-0.0623 -0.25079,4.58665 -0.46179,68.18675 0.309,106.60147 z"
         id="path39-1-9"
         sodipodi:nodetypes="ccccccccc"
         style="fill:#e59629;fill-opacity:1" /></g></g></svg>
