<?xml version="1.0" encoding="UTF-8" standalone="no"?>
<svg
   width="1337.1591"
   height="1337.1591"
   version="1.1"
   id="svg19"
   sodipodi:docname="deploy-to-cloud-simple-filled-icon.svg"
   inkscape:export-filename="deploy-to-cloud-simple-filled-icon.png"
   inkscape:export-xdpi="37.332882"
   inkscape:export-ydpi="37.332882"
   inkscape:version="1.4 (86a8ad7, 2024-10-11)"
   xmlns:inkscape="http://www.inkscape.org/namespaces/inkscape"
   xmlns:sodipodi="http://sodipodi.sourceforge.net/DTD/sodipodi-0.dtd"
   xmlns:xlink="http://www.w3.org/1999/xlink"
   xmlns="http://www.w3.org/2000/svg"
   xmlns:svg="http://www.w3.org/2000/svg">
  <defs
     id="defs19">
    <linearGradient
       id="linearGradient19"
       inkscape:collect="always">
      <stop
         style="stop-color:#335c9c;stop-opacity:1;"
         offset="0"
         id="stop19" />
      <stop
         style="stop-color:#335c9c;stop-opacity:0.67263424;"
         offset="1"
         id="stop21" />
    </linearGradient>
    <linearGradient
       inkscape:collect="always"
       xlink:href="#linearGradient19"
       id="linearGradient20"
       x1="0"
       y1="668.5795"
       x2="1337.159"
       y2="668.5795"
       gradientUnits="userSpaceOnUse" />
  </defs>
  <sodipodi:namedview
     id="namedview19"
     pagecolor="#ffffff"
     bordercolor="#000000"
     borderopacity="0.25"
     inkscape:showpageshadow="2"
     inkscape:pageopacity="0.0"
     inkscape:pagecheckerboard="0"
     inkscape:deskcolor="#d1d1d1"
     inkscape:zoom="0.47260339"
     inkscape:cx="494.07179"
     inkscape:cy="722.59321"
     inkscape:window-width="1920"
     inkscape:window-height="1094"
     inkscape:window-x="-11"
     inkscape:window-y="-11"
     inkscape:window-maximized="1"
     inkscape:current-layer="svg19" />
  <path
     fill="#fefefe"
     d="M 0,0 H 1337.159 V 1337.159 H 0 Z"
     id="path1"
     style="stroke-width:1.30581;fill:url(#linearGradient20);fill-opacity:1" />
  <path
     id="path2"
     d="m 658.05055,195.15353 c -7.74733,0.17233 -15.48551,0.53569 -23.21484,1.08789 -7.72933,0.5522 -15.44143,1.29388 -23.13477,2.22461 -7.69333,0.9308 -15.35809,2.0484 -22.99609,3.35547 -7.638,1.30713 -15.24002,2.80215 -22.80469,4.48242 -7.56533,1.68027 -15.0833,3.54435 -22.55664,5.59375 -7.47266,2.04947 -14.89186,4.28171 -22.25586,6.69531 -7.364,2.4136 -14.66439,5.00535 -21.90039,7.77735 -7.23666,2.77193 -14.40019,5.72001 -21.49219,8.84375 -7.09133,3.12366 -14.10125,6.41885 -21.03125,9.88672 -6.93,3.46793 -13.7721,7.10453 -20.52343,10.9082 -6.75134,3.80373 -13.40427,7.77012 -19.96094,11.90039 -6.55667,4.13066 -13.00947,8.42052 -19.35547,12.86719 -6.34667,4.44733 -12.57922,9.04744 -18.69922,13.80078 -6.12066,4.75266 -12.12066,9.65317 -18,14.70117 -5.88,5.04733 -11.63314,10.23445 -17.25781,15.56445 -5.62533,5.33 -11.11599,10.79649 -16.47266,16.39649 -5.35666,5.59933 -10.57115,11.32564 -15.64648,17.18164 -5.07533,5.85533 -10.00444,11.83168 -14.78711,17.92968 -4.782,6.09734 -9.41329,12.30944 -13.89063,18.63477 -4.47666,6.32467 -8.79569,12.75564 -12.95703,19.29297 -4.162,6.53667 -8.16076,13.17096 -11.99609,19.9043 -3.83587,6.73333 -7.50311,13.55737 -11.00391,20.4707 -3.50073,6.91333 -6.82899,13.90771 -9.98632,20.98437 -3.15734,7.07667 -6.14094,14.22784 -8.94727,21.45118 -2.80633,7.22333 -5.43233,14.51128 -7.88086,21.86328 -2.44853,7.35266 -4.71585,14.75932 -6.80078,22.22265 -2.08487,7.46334 -3.98497,14.97459 -5.70117,22.53125 -1.71614,7.55667 -3.24645,15.15121 -4.58985,22.78321 -1.34333,7.632 -2.49946,15.2918 -3.46679,22.98046 -0.96727,7.68867 -1.74505,15.39639 -2.33399,23.12305 -0.58886,7.72667 -0.98813,15.46232 -1.19726,23.20899 -0.20907,7.746 -0.22784,15.4929 -0.0566,23.24023 0.1712,7.74733 0.53285,15.48551 1.08398,23.21484 0.5512,7.73 1.29104,15.4421 2.2207,23.13477 0.92974,7.69333 2.04752,15.35938 3.35352,22.99805 1.30607,7.638 2.79931,15.23935 4.47851,22.80468 1.67927,7.56467 3.54347,15.0846 5.5918,22.5586 2.0484,7.47333 4.27887,14.89186 6.69141,22.25586 2.4126,7.364 5.00439,14.66372 7.77539,21.90039 2.77093,7.23733 5.71711,14.40214 8.83984,21.49414 3.12267,7.092 6.41783,14.10449 9.88477,21.03516 3.46693,6.92999 7.10156,13.76948 10.90429,20.52148 3.8028,6.752 7.76911,13.40751 11.89844,19.96484 4.12934,6.55734 8.41662,13.00881 12.86328,19.35547 4.446,6.34667 9.04488,12.58051 13.79688,18.70117 4.75266,6.12134 9.65255,12.12196 14.69922,18.00196 5.04666,5.88066 10.23512,11.63376 15.56445,17.25976 5.32933,5.62534 10.79391,11.11733 16.39258,16.47463 5.59866,5.358 11.32631,10.5744 17.18164,15.6504 5.85467,5.0766 11.8304,10.0064 17.92773,14.789 6.09667,4.7834 12.3062,9.4146 18.63086,13.8926 6.324,4.478 12.75435,8.797 19.29102,12.959 6.536,4.1626 13.17163,8.1633 19.9043,12 6.73266,3.8366 13.55541,7.5045 20.46874,11.0058 6.91267,3.502 13.90576,6.8323 20.98243,9.9903 7.076,3.1586 14.22655,6.1418 21.44922,8.9492 7.22266,2.8073 14.50932,5.4354 21.86132,7.8847 7.352,2.45 14.75933,4.7187 22.22266,6.8047 7.46267,2.086 14.97263,3.9865 22.5293,5.7032 7.55666,1.7173 15.15187,3.249 22.7832,4.5937 7.632,1.3447 15.29052,2.5008 22.97852,3.4688 7.68866,0.9686 15.39638,1.7478 23.12304,2.3378 7.72667,0.59 15.46427,0.9912 23.21094,1.2012 7.746,0.21 15.4929,0.2286 23.24023,0.059 7.74867,-0.17 15.48742,-0.5301 23.21875,-1.0801 7.73067,-0.5506 15.44401,-1.29 23.13868,-2.2187 7.69466,-0.9287 15.36195,-2.0456 23.00195,-3.3516 7.64,-1.3053 15.24388,-2.7979 22.81055,-4.4765 7.56666,-1.6787 15.08783,-3.5419 22.5625,-5.5899 7.47533,-2.048 14.89443,-4.2774 22.25976,-6.6894 7.366,-2.4127 14.66825,-5.0048 21.90625,-7.7754 7.23867,-2.7714 14.40472,-5.7172 21.49805,-8.8399 7.09333,-3.1226 14.10511,-6.4181 21.03711,-9.8847 6.932,-3.4674 13.77596,-7.1029 20.5293,-10.9063 6.75333,-3.8026 13.40813,-7.7684 19.96679,-11.8984 6.55867,-4.13 13.01333,-8.4185 19.36133,-12.8652 6.348,-4.4467 12.58308,-9.0475 18.70508,-13.8008 6.12266,-4.7527 12.12452,-9.6532 18.00586,-14.7012 5.88133,-5.0473 11.63439,-10.2344 17.26169,-15.5644 5.6267,-5.3307 11.12048,-10.7972 16.47848,-16.39651 5.3587,-5.6 10.577,-11.32759 15.6543,-17.18359 5.0774,-5.856 10.0077,-11.83364 14.7911,-17.93164 4.784,-6.09867 9.4139,-12.30943 13.8925,-18.63477 4.4787,-6.32533 8.8003,-12.75692 12.9629,-19.29492 4.1634,-6.53733 8.1634,-13.17354 12,-19.9082 3.8374,-6.734 7.5058,-13.55866 11.0078,-20.47266 3.502,-6.91467 6.8336,-13.91095 9.9922,-20.98828 3.158,-7.078 6.14,-14.22913 8.9473,-21.45313 2.8073,-7.22466 5.4354,-14.5119 7.8848,-21.86523 2.45,-7.35333 4.7174,-14.76385 6.8027,-22.22852 2.086,-7.46466 3.9884,-14.9752 5.7051,-22.5332 1.7166,-7.558 3.2458,-15.15377 4.5898,-22.78711 1.344,-7.63266 2.5014,-15.29437 3.4688,-22.98437 0.968,-7.69 1.7466,-15.39896 2.3359,-23.12696 0.5887,-7.72866 0.986,-15.46555 1.1953,-23.21289 0.2093,-7.748 0.2299,-15.49742 0.059,-23.24609 -0.1713,-7.74867 -0.5326,-15.48808 -1.084,-23.21875 -0.5513,-7.73133 -1.2926,-15.44401 -2.2226,-23.13867 -0.93,-7.694 -2.0475,-15.36196 -3.3535,-23.00196 -1.3067,-7.63933 -2.8005,-15.24192 -4.4805,-22.80859 -1.6793,-7.56667 -3.5444,-15.08783 -5.5938,-22.5625 -2.0493,-7.47467 -4.28,-14.89443 -6.6933,-22.25976 -2.4133,-7.36534 -5.0054,-14.6663 -7.7774,-21.9043 -2.7713,-7.238 -5.7197,-14.40343 -8.8437,-21.4961 -3.124,-7.09333 -6.4207,-14.10577 -9.8887,-21.0371 -3.468,-6.93134 -7.1022,-13.77273 -10.9062,-20.5254 -3.804,-6.75333 -7.7717,-13.40879 -11.9024,-19.96679 -4.1306,-6.558 -8.4211,-13.01204 -12.8691,-19.35938 -4.4473,-6.34733 -9.0468,-12.58179 -13.8008,-18.70312 -4.754,-6.122 -9.6551,-12.12324 -14.7031,-18.00391 -5.0487,-5.88067 -10.239,-11.63376 -15.5703,-17.25976 -5.3307,-5.626 -10.7959,-11.11857 -16.39648,-16.47657 -5.6007,-5.35733 -11.33086,-10.57372 -17.18752,-15.65039 -5.85667,-5.076 -11.83298,-10.00573 -17.93164,-14.78906 -6.09867,-4.78267 -12.31201,-9.41262 -18.63868,-13.89062 -6.326,-4.47734 -12.75887,-8.79699 -19.29687,-12.95899 -6.53867,-4.1622 -13.17354,-8.16191 -19.9082,-11.99805 -6.73467,-3.83612 -13.55995,-7.50485 -20.47461,-11.00585 -6.91467,-3.501 -13.91157,-6.82887 -20.99024,-9.98633 -7.078,-3.15747 -14.22846,-6.14093 -21.45312,-8.94727 -7.22467,-2.80633 -14.51514,-5.43246 -21.86914,-7.88086 -7.35334,-2.4484 -14.76319,-4.71618 -22.22852,-6.80078 -7.46467,-2.0846 -14.9752,-3.98342 -22.5332,-5.69922 -7.55867,-1.7158 -15.15378,-3.24509 -22.78711,-4.58789 -7.63333,-1.3428 -15.29633,-2.49824 -22.98633,-3.46484 -7.69,-0.9666 -15.39895,-1.74397 -23.12695,-2.33203 -7.72867,-0.58807 -15.46556,-0.98523 -23.21289,-1.19336 -7.748,-0.20814 -15.49743,-0.22702 -23.2461,-0.0547 z m 21.61524,21.18164 c 7.39899,0.18144 14.79055,0.54578 22.17187,1.08984 7.38068,0.54407 14.74253,1.26832 22.08789,2.17383 7.34536,0.90545 14.66466,1.99113 21.95703,3.25586 7.29238,1.26467 14.54846,2.70724 21.76954,4.32813 7.22173,1.62082 14.40042,3.41745 21.5332,5.39062 7.13343,1.97311 14.21276,4.11883 21.24023,6.43946 7.02813,2.32062 13.99524,4.81203 20.90039,7.4746 6.90582,2.66258 13.74132,5.49407 20.50782,8.49219 6.76648,2.99806 13.45493,6.15993 20.0664,9.48633 6.61148,3.32635 13.13802,6.81241 19.57813,10.45898 6.4401,3.64652 12.78732,7.4497 19.04101,11.40821 6.25369,3.95786 12.40675,8.06742 18.45899,12.32812 6.05158,4.26004 11.99434,8.66503 17.83008,13.2168 5.83572,4.55176 11.55661,9.2451 17.1621,14.07812 5.6055,4.83237 11.08966,9.79854 16.45118,14.90039 5.36153,5.10185 10.59413,10.3325 15.69923,15.69141 5.10512,5.35825 10.07652,10.83853 14.91212,16.44141 4.8356,5.60287 9.5303,11.32183 14.0859,17.15429 4.5551,5.83312 8.9646,11.77461 13.2286,17.82422 4.2633,6.04962 8.3761,12.19814 12.3378,18.44922 3.9618,6.25173 7.7676,12.59702 11.418,19.03516 3.6504,6.43814 7.1421,12.96275 10.4727,19.57226 3.3299,6.60952 6.4958,13.29602 9.498,20.06055 3.0016,6.76518 5.8353,13.60005 8.502,20.50391 2.6667,6.90384 5.1617,13.86967 7.4863,20.89648 2.3246,7.02617 4.4758,14.10421 6.4531,21.23633 1.9773,7.13212 3.7796,14.30887 5.4043,21.5293 1.6254,7.22041 3.0709,14.47651 4.3399,21.76757 1.2689,7.29172 2.3597,14.61037 3.2695,21.95508 0.9098,7.3447 1.6374,14.70722 2.1855,22.08789 0.5482,7.38068 0.9158,14.77093 1.1016,22.16992 0.1858,7.39899 0.1909,14.79698 0.014,22.19532 -0.1779,7.39898 -0.5378,14.78858 -1.0781,22.16992 -0.5403,7.38132 -1.2608,14.74579 -2.1621,22.0918 -0.9014,7.34601 -1.9831,14.66595 -3.2442,21.95898 -1.261,7.29237 -2.6995,14.5491 -4.3164,21.77148 -1.6169,7.22239 -3.4094,14.40107 -5.3789,21.53516 -1.9694,7.13409 -4.1129,14.21471 -6.4297,21.24414 -2.3167,7.02878 -4.804,13.99718 -7.4629,20.9043 -2.6588,6.90646 -5.4873,13.74326 -8.4824,20.51172 -2.9944,6.76845 -6.1519,13.45948 -9.4746,20.07226 -3.3227,6.61344 -6.806,13.14192 -10.4492,19.58399 -3.6433,6.44206 -7.4432,12.79122 -11.3984,19.04687 -3.9546,6.25565 -8.061,12.41 -12.3184,18.46484 -4.2568,6.05355 -8.6586,11.99955 -13.207,17.8379 -4.5492,5.83834 -9.2387,11.5618 -14.0684,17.16992 -4.8298,5.60745 -9.794,11.09419 -14.89262,16.45898 -5.0992,5.36414 -10.326,10.59929 -15.68162,15.70703 -5.35629,5.10774 -10.83529,10.08104 -16.43555,14.91994 -5.59961,4.8389 -11.31533,9.5374 -17.14648,14.0957 -5.8305,4.5583 -11.76941,8.9717 -17.81641,13.2383 -6.04765,4.2672 -12.1962,8.3826 -18.44531,12.3476 -6.24911,3.9651 -12.59117,7.7741 -19.02735,11.4278 -6.43618,3.6537 -12.9582,7.1485 -19.5664,10.4823 -6.60755,3.3339 -13.29342,6.5023 -20.05664,9.5079 -6.76322,3.0055 -13.59551,5.8437 -20.49805,8.5136 -6.90254,2.6707 -13.86706,5.1695 -20.89258,7.4981 -7.02485,2.3279 -14.10161,4.4836 -21.23242,6.4648 -7.13147,1.9812 -14.30823,3.7854 -21.52734,5.4141 -7.21978,1.6287 -14.47456,3.0807 -21.76563,4.3535 -7.2904,1.2728 -14.60842,2.3655 -21.95312,3.2793 -7.34405,0.9138 -14.70527,1.6472 -22.08594,2.1992 -7.38067,0.5521 -14.77158,0.9217 -22.16992,1.1113 -7.40357,0.1897 -14.80672,0.1975 -22.21094,0.023 -7.40357,-0.1739 -14.79898,-0.5294 -22.18555,-1.0664 -7.38656,-0.537 -14.75423,-1.2549 -22.10547,-2.1543 -7.35124,-0.8987 -14.67635,-1.9772 -21.9746,-3.2363 -7.29827,-1.2585 -14.56145,-2.695 -21.78907,-4.3105 -7.22762,-1.6156 -14.41081,-3.4088 -21.55078,-5.377 -7.13932,-1.9688 -14.22705,-4.1097 -21.26172,-6.4258 -7.03466,-2.3167 -14.00822,-4.806 -20.91992,-7.4648 -6.91235,-2.6589 -13.75561,-5.4854 -20.5293,-8.4805 -6.77303,-2.9944 -13.46922,-6.1525 -20.08789,-9.4765 -6.61801,-3.3241 -13.15035,-6.8086 -19.59765,-10.4531 -6.4473,-3.6446 -12.80032,-7.4471 -19.06055,-11.4043 -6.26023,-3.9566 -12.41974,-8.0629 -18.47852,-12.3223 -6.05877,-4.2587 -12.00928,-8.665 -17.85156,-13.2168 -5.84226,-4.5518 -11.56961,-9.2438 -17.18164,-14.0762 -5.61204,-4.833 -11.10264,-9.7998 -16.4707,-14.90231 -5.36741,-5.10251 -10.60579,-10.33381 -15.7168,-15.69336 -5.11101,-5.35956 -10.08751,-10.84113 -14.92969,-16.44531 -4.84152,-5.60419 -9.54259,-11.32509 -14.10351,-17.16016 -4.56092,-5.83508 -8.9756,-11.77785 -13.24414,-17.83008 -4.2692,-6.05158 -8.38845,-12.20464 -12.35547,-18.45898 -3.96636,-6.25369 -7.77663,-12.60156 -11.43164,-19.04297 -3.65502,-6.44141 -7.14986,-12.96925 -10.48438,-19.58203 -3.33432,-6.61278 -6.50392,-13.30315 -9.50976,-20.07227 -3.0058,-6.76842 -5.84371,-13.6059 -8.51367,-20.51367 -2.66991,-6.90843 -5.16841,-13.87746 -7.4961,-20.9082 -2.32762,-7.03074 -4.48122,-14.11591 -6.46094,-21.25196 -1.97978,-7.1367 -3.78306,-14.31601 -5.41015,-21.54101 -1.62703,-7.22501 -3.07717,-14.4869 -4.34766,-21.7832 -1.27042,-7.2963 -2.36067,-14.61882 -3.27148,-21.96875 -0.91081,-7.34994 -1.64048,-14.71827 -2.18946,-22.10352 -0.54897,-7.38591 -0.9158,-14.78003 -1.10156,-22.18359 -0.18576,-7.40357 -0.18956,-14.80671 -0.0117,-22.21094 0.17785,-7.40357 0.53707,-14.79899 1.07813,-22.18555 0.54099,-7.3859 1.26305,-14.75487 2.16601,-22.10547 0.90296,-7.35124 1.98541,-14.67505 3.24805,-21.97265 1.26264,-7.29761 2.70289,-14.55885 4.32226,-21.78516 1.61932,-7.22697 3.41662,-14.41017 5.38868,-21.54883 1.97212,-7.13866 4.1174,-14.22445 6.4375,-21.25781 2.32016,-7.0327 4.81209,-14.00497 7.47461,-20.91602 2.66251,-6.91104 5.49165,-13.75366 8.49023,-20.52539 2.99852,-6.77172 6.16292,-13.46532 9.49024,-20.08203 3.32732,-6.6167 6.81507,-13.14711 10.46289,-19.59179 3.64848,-6.44534 7.45229,-12.79643 11.41211,-19.05469 3.95982,-6.25828 8.07132,-12.41585 12.33398,-18.47266 4.26266,-6.05616 8.67023,-12.00539 13.22461,-17.8457 4.55438,-5.83966 9.24964,-11.56442 14.08594,-17.17383 4.83564,-5.60942 9.80699,-11.09549 14.91211,-16.46094 5.10512,-5.36478 10.33704,-10.60254 15.69922,-15.71093 5.36282,-5.10774 10.84827,-10.08102 16.45507,-14.91993 5.60616,-4.83891 11.32833,-9.5361 17.16602,-14.09375 5.83769,-4.55765 11.7837,-8.97039 17.83789,-13.23632 6.05419,-4.26594 12.20919,-8.38067 18.46484,-12.34375 6.25631,-3.96375 12.60546,-7.77209 19.04883,-11.42383 6.44338,-3.65136 12.97315,-7.14181 19.58789,-10.47266 6.61409,-3.33092 13.30576,-6.49776 20.07617,-9.5 6.77042,-3.00224 13.61046,-5.83565 20.51954,-8.50195 6.90973,-2.66631 13.88005,-5.16244 20.91211,-7.48633 7.03204,-2.32396 14.11654,-4.47323 21.2539,-6.44922 7.13735,-1.97598 14.31926,-3.7752 21.54492,-5.39843 7.22631,-1.62331 14.48821,-3.06931 21.78516,-4.33594 7.29695,-1.26657 14.62077,-2.35282 21.9707,-3.25977 7.35059,-0.90695 14.71956,-1.63268 22.10547,-2.17773 7.38591,-0.54505 14.78003,-0.90795 22.18359,-1.08985 7.399,-0.18177 14.79698,-0.18333 22.19532,-0.002 z"
     style="fill:#ffffff" />
  <path
     id="path4"
     d="m 697.16387,353.98759 c -2.5732,-0.0398 -5.12466,0.005 -7.64453,0.13867 -38.838,1.681 -73.38743,15.99469 -99.85743,44.92969 -13.224,14.455 -28.53839,38.6017 -32.27539,58.3457 -34.2,-13.376 -67.26109,-13.54223 -101.12109,1.13477 -30.361,13.16 -55.54366,40.17122 -67.59766,70.94921 -9.994,25.513 -11.32661,51.80472 -6.84961,78.63672 -31.102,13.202 -54.76011,34.82725 -67.53711,66.53125 -12.517,31.057 -11.76132,64.42252 1.51368,95.10352 0.376,0.884 0.76281,1.764 1.16015,2.63867 0.39733,0.87467 0.804,1.74471 1.22266,2.60938 0.41934,0.86466 0.84906,1.72412 1.28906,2.57812 0.44,0.854 0.89219,1.70226 1.35352,2.54492 0.46067,0.84334 0.93206,1.68039 1.41406,2.51172 0.482,0.83067 0.97261,1.65528 1.47461,2.47461 0.502,0.81933 1.01445,1.6315 1.53711,2.4375 0.522,0.80667 1.0537,1.60706 1.5957,2.40039 0.542,0.79267 1.09491,1.57938 1.65625,2.35938 0.56133,0.77933 1.13222,1.55236 1.71289,2.31836 0.58066,0.76533 1.17019,1.52277 1.76953,2.27343 0.59933,0.75134 1.20884,1.49447 1.82618,2.23047 0.61732,0.736 1.24289,1.4636 1.8789,2.1836 0.63533,0.72066 1.28026,1.434 1.9336,2.13867 0.65332,0.70466 1.31437,1.40184 1.98437,2.08984 0.67067,0.688 1.34978,1.36773 2.03711,2.03906 0.68667,0.67134 1.38194,1.33362 2.08594,1.98829 0.70333,0.654 1.41542,1.29888 2.13476,1.93554 0.72,0.63667 1.44697,1.26414 2.18164,1.88282 0.73533,0.61865 1.47852,1.22812 2.22852,1.82812 0.75,0.60067 1.50681,1.1921 2.27148,1.77344 0.76466,0.582 1.53579,1.15413 2.31446,1.71679 0.77867,0.56267 1.56476,1.11554 2.35742,1.65821 0.79267,0.54333 1.59114,1.07627 2.39648,1.59961 0.806,0.52333 1.61755,1.03701 2.43555,1.54101 0.81867,0.50334 1.64461,0.99585 2.47461,1.47852 0.83067,0.48333 1.66581,0.95597 2.50781,1.41797 0.84267,0.46266 1.69158,0.91609 2.54492,1.35742 0.85333,0.44133 1.71217,0.87101 2.57617,1.29101 0.864,0.42 1.73147,0.82985 2.60547,1.22852 0.874,0.39867 1.75338,0.78673 2.63672,1.16406 0.884,0.37667 1.77336,0.74233 2.66602,1.09766 2.34267,0.89733 4.71203,1.71574 7.10937,2.45508 2.39733,0.74 4.81649,1.39985 7.25782,1.97851 2.44067,0.57934 4.89837,1.07619 7.37304,1.49219 2.474,0.416 4.95908,0.74933 7.45508,1 11.77,1.179 23.71044,0.83936 35.52344,0.81836 l 41.13672,-0.002 c 38.55067,-0.29934 77.10295,-0.36093 115.65429,-0.1836 l -0.0762,88.01172 -0.0137,31.22656 c 0.029,5.606 -0.19797,11.37508 0.33203,16.95508 2.12699,3.434 3.88672,5.01367 7.88672,5.88867 8.113,1.775 24.80041,0.64302 33.81641,0.66602 l 55.00586,-0.1875 c 10.18,-10e-4 20.5001,0.50709 30.66211,0.12109 2.59699,-1.695 4.90434,-3.29365 5.65234,-6.47265 1.597,-6.795 0.33575,-29.13608 0.34375,-37.20508 l 0.14648,-98.79883 120.07422,-0.36914 39.92774,-0.0156 c 16.02,-0.003 31.22175,0.50258 46.96875,-3.23242 1.27533,-0.29666 2.54459,-0.6144 3.80859,-0.95508 1.264,-0.34065 2.52144,-0.70322 3.77344,-1.08789 1.25133,-0.38533 2.49576,-0.79203 3.73242,-1.2207 1.23734,-0.428 2.46617,-0.87761 3.6875,-1.34961 1.22134,-0.47133 2.43595,-0.96451 3.64062,-1.47851 1.204,-0.514 2.39866,-1.04947 3.58399,-1.60547 1.18534,-0.556 2.36006,-1.13314 3.52539,-1.73047 1.16534,-0.59667 2.31956,-1.21228 3.46289,-1.84961 1.144,-0.638 2.27648,-1.29728 3.39648,-1.97461 1.12066,-0.67667 2.22822,-1.37189 3.32422,-2.08789 1.09666,-0.716 2.18,-1.45108 3.25,-2.20508 1.07066,-0.754 2.12855,-1.52702 3.17188,-2.31836 1.04331,-0.79066 2.07134,-1.6004 3.08594,-2.42773 1.0154,-0.82667 2.01655,-1.66925 3.00195,-2.53125 0.9853,-0.862 1.95556,-1.74267 2.91015,-2.63867 0.95471,-0.896 1.89176,-1.807 2.81446,-2.73633 0.7093,-0.70467 1.41026,-1.41991 2.10156,-2.14258 0.692,-0.72267 1.37428,-1.45207 2.04685,-2.19141 0.6734,-0.74 1.3375,-1.48814 1.9922,-2.24414 0.654,-0.756 1.2983,-1.5203 1.9336,-2.29297 0.6353,-0.772 1.261,-1.55379 1.877,-2.34179 0.616,-0.788 1.223,-1.58339 1.8183,-2.38672 0.596,-0.80334 1.1818,-1.61364 1.7578,-2.43164 0.5754,-0.818 1.1407,-1.64261 1.6953,-2.47461 0.5547,-0.832 1.0989,-1.67029 1.6329,-2.51563 0.534,-0.846 1.0576,-1.69797 1.5703,-2.55664 0.5126,-0.85866 1.0132,-1.72437 1.5039,-2.5957 0.4907,-0.87133 0.9708,-1.74948 1.4394,-2.63281 0.4694,-0.88334 0.9271,-1.77264 1.3731,-2.66797 0.4466,-0.89467 0.8807,-1.79389 1.3047,-2.69922 0.424,-0.906 0.8369,-1.81642 1.2382,-2.73242 0.4014,-0.916 0.792,-1.83767 1.17,-2.76367 0.3786,-0.926 0.7449,-1.85635 1.0996,-2.79102 0.3547,-0.93533 0.6979,-1.87503 1.0293,-2.81836 0.3313,-0.944 0.651,-1.89046 0.959,-2.8418 0.3073,-0.95133 0.6034,-1.90785 0.8867,-2.86718 0.284,-0.95867 0.5551,-1.92072 0.8144,-2.88672 0.2594,-0.966 0.5069,-1.93425 0.7422,-2.90625 0.2354,-0.972 0.4586,-1.9465 0.6699,-2.92383 0.2107,-0.978 0.4078,-1.95941 0.5938,-2.94141 0.1867,-0.98266 0.3621,-1.96775 0.5234,-2.95507 0.162,-0.98668 0.3106,-1.97418 0.4473,-2.96485 0.1367,-0.99067 0.261,-1.98256 0.373,-2.97656 0.112,-0.99333 0.2115,-1.98966 0.2989,-2.98633 0.087,-0.996 0.1626,-1.99352 0.2246,-2.99219 0.062,-0.998 0.1111,-1.99676 0.1484,-2.99609 0.037,-0.99933 0.06,-1.99805 0.072,-2.99805 0.012,-1 0.013,-2 0,-3 0,-0.99533 -0.021,-1.98971 -0.049,-2.98437 -0.029,-0.99467 -0.069,-1.99038 -0.1211,-2.98438 -0.053,-0.99333 -0.1167,-1.98585 -0.1933,-2.97851 -0.077,-0.992 -0.1669,-1.98266 -0.2676,-2.97266 -0.1013,-0.99 -0.2146,-1.97946 -0.3399,-2.9668 -0.1254,-0.98733 -0.2627,-1.97303 -0.4121,-2.95703 -0.1493,-0.98333 -0.309,-1.96531 -0.4824,-2.94531 -0.1733,-0.98 -0.3593,-1.95631 -0.5566,-2.93164 -0.1974,-0.97533 -0.4076,-1.94926 -0.6289,-2.91992 -0.2207,-0.97 -0.4526,-1.93768 -0.6973,-2.90235 -0.2453,-0.96466 -0.5015,-1.92481 -0.7695,-2.88281 -0.2687,-0.95867 -0.5485,-1.9139 -0.8399,-2.86523 -0.292,-0.95134 -0.5955,-1.89975 -0.9101,-2.84375 -0.3147,-0.944 -0.6406,-1.88432 -0.9786,-2.82032 -0.338,-0.936 -0.6881,-1.86692 -1.0488,-2.79492 -0.3606,-0.92733 -0.7319,-1.85086 -1.1152,-2.76953 -0.3833,-0.918 -0.7783,-1.83157 -1.1836,-2.74023 -0.406,-0.90867 -0.8227,-1.81227 -1.25,-2.71094 -0.428,-0.89867 -0.8671,-1.79169 -1.3164,-2.67969 -0.45,-0.888 -0.9102,-1.77048 -1.3809,-2.64648 -0.4713,-0.87667 -0.9526,-1.74795 -1.4453,-2.61328 -0.492,-0.86467 -0.9945,-1.72222 -1.5078,-2.57422 -0.514,-0.85267 -1.0383,-1.69907 -1.5723,-2.53906 -0.5341,-0.83934 -1.0781,-1.67139 -1.6328,-2.49805 -0.5546,-0.826 -1.1206,-1.64632 -1.6953,-2.45899 -0.5746,-0.81266 -1.158,-1.61801 -1.752,-2.41601 -0.594,-0.798 -1.1985,-1.58776 -1.8125,-2.3711 -0.6134,-0.784 -1.2364,-1.56012 -1.8691,-2.32812 -0.6326,-0.768 -1.2744,-1.52858 -1.9258,-2.28125 -0.6513,-0.75267 -1.3111,-1.49642 -1.9804,-2.23242 -0.66944,-0.73667 -1.34789,-1.46622 -2.03519,-2.18555 -0.6873,-0.72 -1.38319,-1.43015 -2.08789,-2.13281 -3.444,-3.33467 -7.0677,-6.46153 -10.8711,-9.38086 -3.8033,-2.91933 -7.76104,-5.61151 -11.87304,-8.07617 9.586,-34.82 7.16893,-71.2473 -10.78907,-103.0293 -16.944,-29.989 -44.17182,-51.75706 -77.42382,-60.91406 -19.366,-5.332 -37.5244,-5.69214 -57.2754,-2.74414 -15.01599,-37.643 -39.4526,-67.82847 -77.3496,-84.23047 -16.14638,-6.98775 -35.18682,-11.40883 -53.19922,-11.6875 z m -3.125,17.27734 c 2.69825,0.0456 5.3979,0.21902 7.9414,0.41602 1.34067,0.0933 2.67896,0.20775 4.01563,0.34375 1.33666,0.13666 2.67062,0.29461 4.00195,0.47461 1.33133,0.18 2.65971,0.38085 3.98438,0.60351 1.32533,0.22267 2.64751,0.46838 3.96484,0.73438 1.31667,0.266 2.62755,0.55137 3.93555,0.85937 1.30733,0.30867 2.61087,0.63957 3.9082,0.99024 1.29733,0.35066 2.58838,0.72256 3.87305,1.11523 1.28533,0.392 2.56265,0.80428 3.83398,1.23828 1.27133,0.434 2.53564,0.88795 3.79297,1.36328 1.25667,0.47534 2.50543,0.971 3.74609,1.48633 1.24067,0.51534 2.47394,1.05142 3.69727,1.60742 1.22333,0.55534 2.43596,1.12995 3.64062,1.72461 1.20467,0.59534 2.39932,1.20975 3.58399,1.84375 1.18533,0.63334 2.3601,1.28699 3.52344,1.95899 1.16333,0.672 2.31569,1.36164 3.45703,2.07031 1.14133,0.70933 2.27134,1.43759 3.38867,2.18359 1.11733,0.746 2.22307,1.50902 3.31641,2.29102 1.09266,0.78133 2.17161,1.58177 3.23828,2.39844 1.06666,0.81733 2.12015,1.65128 3.16015,2.50195 1.04,0.85133 2.06484,1.71756 3.07618,2.60156 1.01133,0.884 2.00952,1.78451 2.99218,2.70117 0.98267,0.91667 1.94839,1.84888 2.90039,2.79688 0.952,0.948 1.88988,1.91196 2.81055,2.89062 0.92133,0.978 1.82618,1.97052 2.71484,2.97852 0.88867,1.008 1.7599,2.03041 2.61524,3.06641 0.85533,1.036 1.69429,2.0851 2.51562,3.14843 0.82134,1.06334 1.62545,2.14114 2.41211,3.23047 0.78667,1.08934 1.55402,2.19069 2.30469,3.30469 0.75067,1.11467 1.48327,2.24091 2.19727,3.37891 0.71466,1.138 1.41122,2.2866 2.08789,3.44726 0.67666,1.16067 1.33399,2.33167 1.97265,3.51367 0.63934,1.182 1.25938,2.37418 1.85938,3.57618 3.341,6.587 6.89398,21.42068 11.20898,26.05468 4.644,4.989 18.59964,0.27761 24.55664,-0.40039 4.381,-0.498 8.9035,-0.50768 13.3125,-0.42968 0.9,0.022 1.79989,0.0549 2.69922,0.0996 0.89933,0.044 1.79731,0.0994 2.69531,0.16602 0.898,0.066 1.79541,0.14376 2.69141,0.23242 0.896,0.088 1.79026,0.18621 2.68359,0.29688 0.894,0.11 1.78707,0.23061 2.67774,0.36328 0.89066,0.132 1.77935,0.27569 2.66601,0.42969 0.88734,0.154 1.77292,0.32009 2.65625,0.49609 0.88267,0.176 1.76196,0.36126 2.64063,0.55859 0.87867,0.19734 1.75557,0.40567 2.62891,0.625 0.87333,0.21867 1.74399,0.44879 2.61132,0.68946 0.868,0.24 1.73242,0.49062 2.59375,0.75195 0.86134,0.262 1.71889,0.53374 2.57422,0.81641 0.85467,0.28266 1.70669,0.57557 2.55469,0.8789 0.84733,0.30334 1.69125,0.61869 2.53125,0.94336 0.84,0.324 1.67581,0.65729 2.50781,1.00195 0.83134,0.34467 1.65909,0.70108 2.48242,1.06641 0.82267,0.36533 1.63913,0.73967 2.45313,1.125 0.814,0.38467 1.62373,0.78021 2.42773,1.18555 0.804,0.40533 1.60249,0.81947 2.39649,1.24414 0.794,0.42466 1.58385,0.85873 2.36719,1.30273 0.78333,0.444 1.56003,0.898 2.33203,1.36133 0.772,0.46267 1.53816,0.93597 2.29882,1.41797 0.76067,0.482 1.51696,0.97199 2.26563,1.47266 0.748,0.50066 1.48861,1.01063 2.22461,1.52929 0.736,0.51867 1.46612,1.04732 2.18945,1.58399 0.72267,0.53666 1.43844,1.08076 2.14844,1.63476 0.70933,0.55467 1.41337,1.11812 2.10937,1.68946 0.69534,0.57133 1.38246,1.15156 2.06446,1.74023 0.68133,0.588 1.35677,1.18373 2.02343,1.78906 0.66734,0.60467 1.32523,1.21851 1.97657,1.83985 0.652,0.62133 1.29692,1.25005 1.93359,1.88671 0.636,0.63667 1.2641,1.28093 1.88477,1.9336 24.137,25.112 36.03865,62.48803 29.34765,96.83203 -0.621,3.191 -1.31226,6.40505 -2.32226,9.49805 -1.618,4.956 -4.96528,10.88981 -4.86328,16.13281 0.038,1.933 0.86332,3.37197 2.23632,4.66797 3.059,2.887 7.7488,4.42858 11.3418,6.64258 6.711,4.136 13.20119,9.37953 18.82422,14.89453 19.46403,19.091 29.11983,45.38475 29.21483,72.46875 0,0.83533 -0.012,1.67052 -0.037,2.50586 -0.023,0.83533 -0.055,1.67119 -0.098,2.50586 -0.043,0.83466 -0.096,1.66733 -0.1582,2.5 -0.063,0.83333 -0.1374,1.66671 -0.2207,2.49804 -0.083,0.83134 -0.176,1.6609 -0.2793,2.49024 -0.1033,0.82933 -0.2185,1.65642 -0.3418,2.48242 -0.124,0.82667 -0.2571,1.65323 -0.4004,2.47656 -0.144,0.82334 -0.2976,1.64356 -0.4609,2.46289 -0.1634,0.81934 -0.3362,1.63779 -0.5196,2.45313 -0.1833,0.81466 -0.3767,1.62683 -0.58,2.4375 -0.2034,0.81066 -0.416,1.61849 -0.6387,2.42383 -0.2227,0.80533 -0.4553,1.60691 -0.6973,2.40625 -0.2426,0.8 -0.4945,1.59729 -0.7558,2.39062 -0.262,0.794 -0.5338,1.58443 -0.8145,2.37109 -0.2807,0.78734 -0.5711,1.57157 -0.8711,2.35157 -0.2993,0.77933 -0.609,1.55546 -0.9277,2.32812 -0.3187,0.77267 -0.6451,1.54069 -0.9824,2.30469 -0.3374,0.76467 -0.685,1.52525 -1.0411,2.28125 -0.3559,0.756 -0.7197,1.50657 -1.0937,2.25391 -0.374,0.74733 -0.7584,1.49051 -1.1504,2.22851 -0.392,0.73733 -0.7931,1.47055 -1.2031,2.19922 -0.41,0.728 -0.8285,1.44997 -1.25587,2.16797 -0.42733,0.718 -0.86197,1.43134 -1.30664,2.13867 -0.44533,0.70733 -0.9,1.40947 -1.36133,2.10547 -0.462,0.69667 -0.93149,1.3876 -1.41015,2.07227 -0.47867,0.68533 -0.96628,1.36248 -1.46094,2.03515 -0.49534,0.67333 -0.99843,1.34129 -1.50977,2.00195 -0.51133,0.66134 -1.03126,1.31685 -1.55859,1.96485 -0.52667,0.64866 -1.06018,1.29045 -1.60352,1.92578 -0.54266,0.63533 -1.09434,1.26343 -1.65234,1.88477 -0.558,0.62199 -1.12265,1.23703 -1.69531,1.8457 -0.57334,0.608 -1.15288,1.20873 -1.74024,1.80273 -0.83266,0.82067 -1.67906,1.62664 -2.53906,2.41797 -0.86,0.792 -1.73443,1.56875 -2.62109,2.33008 -0.88667,0.762 -1.78527,1.50761 -2.69727,2.23828 -0.912,0.73133 -1.83677,1.44715 -2.77344,2.14648 -0.93666,0.69934 -1.8857,1.38217 -2.8457,2.04883 -0.96,0.66667 -1.93011,1.31717 -2.91211,1.95117 -0.982,0.63334 -1.97518,1.24961 -2.97852,1.84961 -1.00333,0.6 -2.01572,1.18338 -3.03906,1.74805 -1.02333,0.56533 -2.05565,1.11325 -3.09765,1.64258 -1.04134,0.53 -2.09235,1.04116 -3.15235,1.53516 -1.05933,0.49333 -2.12779,0.96844 -3.20312,1.42578 -1.076,0.45733 -2.15934,0.89574 -3.25,1.3164 -1.09067,0.42 -2.18831,0.82241 -3.29297,1.20508 -1.10467,0.38267 -2.21537,0.74518 -3.33203,1.08984 -1.11667,0.34467 -2.23919,0.67057 -3.36719,0.97657 -1.128,0.30666 -2.26044,0.59399 -3.39844,0.86133 -14.703,3.378 -30.16511,2.47981 -45.16211,2.50781 l -48.4414,-0.0293 -107.29102,0.0937 c -0.268,-22.944 0.17003,-45.92014 0.20703,-68.86914 17.701,-0.539 35.48922,-0.26794 53.19922,-0.21094 7.793,0.025 15.83961,0.50975 23.59961,-0.0312 2.276,-0.158 6.07734,-0.36284 7.77734,-1.96484 1.729,-1.629 2.64585,-4.50317 2.46485,-6.82617 -0.192,-2.457 -1.285,-3.78364 -2.875,-5.55664 -10.874,-12.124 -22.63036,-23.60799 -33.81836,-35.45899 -22.62067,-24.30933 -45.4161,-48.45421 -68.38477,-72.43554 -9.896,-10.41867 -19.65839,-20.95972 -29.28906,-31.62305 -4.245,-4.612 -8.49047,-10.10297 -13.23047,-14.16797 -2.053,-1.761 -4.65839,-3.74034 -7.52539,-3.40234 -4.445,0.525 -7.56276,5.02229 -10.25976,8.15429 -29.27867,31.71734 -58.86139,63.14764 -88.74805,94.29297 l -34.125,35.78125 c -5.538,5.838 -11.87222,11.60274 -16.82422,17.92774 -1.498,1.914 -2.60942,3.94678 -2.73242,6.42578 -0.113,2.27 0.80923,4.91909 2.49023,6.49609 1.803,1.693 5.4285,2.15714 7.8125,2.36914 7.579,0.674 15.69841,0.0192 23.31641,-0.0508 17.756,-0.162 35.73765,-0.62409 53.47265,0.12891 l 0.0918,68.64843 c -42.34,0.641 -84.75065,0.37699 -127.09766,0.33399 l -36.54296,-0.0137 c -10.295,0.024 -20.70955,0.36056 -30.93555,-1.02344 -11.274,-1.526 -22.85534,-5.48211 -32.77734,-11.03711 -22.882,-12.809 -40.57546,-35.89986 -47.56446,-61.13086 -12.429,-44.866 4.47705,-90.52292 43.62305,-115.79492 3.26933,-2.12867 6.66111,-4.03909 10.17578,-5.73242 5.168,-2.443 11.46603,-4.2853 15.83203,-8.0293 1.306,-1.12 2.1095,-2.52572 2.9375,-4.01172 l 0.32813,-0.60156 c 0.116,-9.537 -2.49175,-19.13613 -2.96875,-28.70313 -1.532,-30.733 8.09965,-60.85362 28.97265,-83.76562 28.784,-31.595 69.65033,-46.24317 111.48633,-33.82617 3.631,1.078 7.2772,2.32853 10.7832,3.76953 4.39,1.804 8.49185,5.40425 13.46485,5.03125 3.795,-0.285 7.27901,-1.78016 9.54101,-4.91016 3.901,-5.4 4.65575,-14.22426 6.71875,-20.57226 4.372,-13.45 11.93678,-25.71136 21.05078,-36.44336 22.41601,-26.397 53.01499,-40.97032 87.33399,-43.82032 2.5345,-0.3155 5.23144,-0.39718 7.92969,-0.35156 z m -26.26172,233 c 3.722,2.166 9.95994,10.37152 13.21094,13.85352 l 44.16406,47.60351 c 10.734,11.507 21.89117,22.66733 32.82617,33.98633 11.407,11.807 22.52605,23.72633 34.37305,35.11133 -15.44467,-0.19867 -30.89061,-0.22224 -46.33594,-0.0742 -6.491,0.067 -13.57042,-0.39325 -19.98242,0.46875 -1.785,0.24 -3.75967,0.46528 -5.13867,1.73828 -1.862,1.719 -2.86061,3.9868 -3.09961,6.4668 -0.777,8.076 -0.14129,16.75386 -0.11328,24.88086 l 0.0977,47.74023 -0.0547,148.35938 c -13.197,0.861 -26.54553,0.48361 -39.76953,0.47461 l -58.78125,0.13086 -0.0586,-44.97266 0.16992,-129.25391 0.0488,-32 c 0.011,-5.552 0.41078,-11.44907 -0.19922,-16.95507 -0.209,-1.888 -0.92377,-3.42436 -2.38477,-4.69336 -1.816,-1.577 -4.48868,-2.03027 -6.80468,-2.32227 -6.441,-0.814 -13.64707,-0.20417 -20.16407,-0.20117 -14.92333,-0.005 -29.84495,0.11905 -44.76562,0.37305 24.63901,-25.59962 48.70512,-51.75551 73.07812,-77.61133 16.688,-17.601 33.5986,-34.93752 49.6836,-53.10352 z"
     style="fill:#ffffff" />
</svg>
